HIERARCHY
ROOT Hips
{
	OFFSET 0.00000 0.00000 0.00000
	CHANNELS 6 Xposition Yposition Zposition Zrotation Yrotation Xrotation 
	JOINT RightUpLegDummy
	{
		OFFSET 0 0 0
		CHANNELS 3 Zrotation Yrotation Xrotation
		JOINT RightUpLeg
		{
			OFFSET -3.52197 -3.41223 0.04002
			CHANNELS 3 Zrotation Yrotation Xrotation
			JOINT RightLeg
			{
				OFFSET 0.00006 -17.42390 1.60435
				CHANNELS 3 Zrotation Yrotation Xrotation
				JOINT RightFoot
				{
					OFFSET 0.06153 -16.50078 -1.63901
					CHANNELS 3 Zrotation Yrotation Xrotation
					JOINT RightToes
					{
						OFFSET 0.00298 -1.73825 3.34613
						CHANNELS 3 Zrotation Yrotation Xrotation
						End Site
						{
							OFFSET 0.00480 -0.05416 3.85043
						}
					}
				}
			}
		}
	}
	JOINT SpineDummy
	{
		OFFSET 0 0 0
		CHANNELS 3 Zrotation Yrotation Xrotation
		JOINT Spine
		{
			OFFSET 0.00000 4.68130 0.00000
			CHANNELS 3 Zrotation Yrotation Xrotation
			JOINT Spine1
			{
				OFFSET -0.00000 10.10138 0.05002
				CHANNELS 3 Zrotation Yrotation Xrotation
				JOINT HEadDummy
				{
					OFFSET 0 0 0
					CHANNELS 3 Zrotation Yrotation Xrotation
					JOINT Head
					{
						OFFSET -0.00000 3.43865 0.00438
						CHANNELS 3 Zrotation Yrotation Xrotation
						End Site
						{
							OFFSET -0.11417 5.02924 0.98962
						}
					}
				}
				JOINT LeftShoulder1Dummy
				{
					OFFSET 0 0 0
					CHANNELS 3 Zrotation Yrotation Xrotation
					JOINT LeftShoulder1
					{
						OFFSET 3.53937 -0.14262 -0.08662
						CHANNELS 3 Zrotation Yrotation Xrotation
						JOINT LeftArm
						{
							OFFSET 4.04833 -0.00133 0.12681
							CHANNELS 3 Zrotation Yrotation Xrotation
							JOINT LeftForeArm
							{
								OFFSET 10.33880 -0.01036 -0.55515
								CHANNELS 3 Zrotation Yrotation Xrotation
								JOINT LeftHand
								{
									OFFSET 8.69677 0.07543 0.40060
									CHANNELS 3 Zrotation Yrotation Xrotation
									End Site
									{
										OFFSET 5.28377 -0.21905 0.59205
									}
								}
							}
						}
					}
				}
				JOINT RightShoulderDummy
				{
					OFFSET 0 0 0
					CHANNELS 3 Zrotation Yrotation Xrotation
					JOINT RightShoulder
					{
						OFFSET -3.53937 -0.14262 -0.08660
						CHANNELS 3 Zrotation Yrotation Xrotation
						JOINT RightArm
						{
							OFFSET -4.04833 -0.00133 0.12683
							CHANNELS 3 Zrotation Yrotation Xrotation
							JOINT RightForeArm
							{
								OFFSET -10.37987 -0.01039 -0.55511
								CHANNELS 3 Zrotation Yrotation Xrotation
								JOINT RightHand
								{
									OFFSET -8.67398 0.07538 0.40058
									CHANNELS 3 Zrotation Yrotation Xrotation
									End Site
									{
										OFFSET -5.24810 -0.21916 0.59204
									}
								}
							}
						}
					}
				}
			}
		}
	}
	JOINT LeftUpLegDummy
	{
		OFFSET 0 0 0
		CHANNELS 3 Zrotation Yrotation Xrotation
		JOINT LeftUpLeg
		{
			OFFSET 3.52197 -3.41223 0.04002
			CHANNELS 3 Zrotation Yrotation Xrotation
			JOINT LeftLeg
			{
				OFFSET -0.00012 -17.42399 1.60337
				CHANNELS 3 Zrotation Yrotation Xrotation
				JOINT LeftFoot
				{
					OFFSET -0.09972 -16.50070 -1.63802
					CHANNELS 3 Zrotation Yrotation Xrotation
					JOINT LeftToes
					{
						OFFSET -0.01575 -1.73823 3.34611
						CHANNELS 3 Zrotation Yrotation Xrotation
						End Site
						{
							OFFSET 0.03150 -0.01868 3.85031
						}
					}
				}
			}
		}
	}
}
MOTION
Frames: 6
Frame Time: 0.033333
-2.2363 38.2954 42.9428 -179.5800 2.4951 176.8820 0.0000 0.0000 0.0000 1.8325 2.1604 -21.4451 0.0565 -9.6724 -3.2102 3.8760 -0.2935 -3.1368 0.0000 -0.0000 -0.0000 0.0000 0.0000 0.0000 -2.6220 -1.3058 8.9085 6.5570 -2.6974 -0.5696 -0.0000 0.0000 -0.0000 -1.5869 3.7513 -5.1880 -0.0000 0.0000 -0.0000 -34.2812 -2.6815 2.4936 -43.9564 -21.4850 -11.0911 -13.1895 5.2315 42.9606 16.6111 -4.8500 -1.4322 -0.0000 0.0000 -0.0000 35.0864 5.2236 3.5879 39.7077 0.7527 -17.2929 10.6614 2.6501 21.0504 -11.1120 1.7691 -0.6704 0.0000 0.0000 0.0000 -1.8279 3.6785 17.6097 -1.7629 0.5207 11.3030 2.4787 0.2531 -18.0527 0.0000 0.0000 -0.0000
-2.0404 38.1995 41.1682 -179.7700 2.0807 176.6010 0.0000 0.0000 0.0000 2.3110 2.2981 -20.8146 -0.0337 -8.1038 -2.1138 3.9735 -0.2608 -4.2569 0.0000 -0.0000 -0.0000 0.0000 0.0000 0.0000 -2.8189 -1.3611 8.5841 6.9815 -2.8258 -0.1156 -0.0000 0.0000 -0.0000 -2.0978 2.9394 -5.7601 -0.0000 0.0000 -0.0000 -34.4358 -2.6050 2.4723 -44.1887 -20.9134 -12.4137 -12.5444 5.2083 44.2086 16.6226 -4.8809 -1.4376 -0.0000 0.0000 -0.0000 35.3823 5.2679 3.6326 39.5759 -0.6081 -19.1607 10.2129 0.5028 19.8291 -11.0523 1.2700 -0.6230 0.0000 0.0000 0.0000 -0.3653 6.0155 20.0138 -2.4254 -2.8389 12.8625 1.0646 0.1386 -15.8729 0.0000 0.0000 -0.0000
-1.8186 38.1166 39.2764 -179.3490 1.5313 175.9970 0.0000 0.0000 0.0000 3.4953 2.7281 -20.0002 -0.7398 -7.9648 1.9884 1.1950 -0.0974 -1.3044 0.0000 -0.0000 -0.0000 0.0000 0.0000 0.0000 -2.0287 -1.5397 8.2749 6.9354 -2.9657 0.2915 -0.0000 0.0000 -0.0000 -2.6851 2.1695 -5.9496 -0.0000 0.0000 -0.0000 -34.7200 -2.5419 2.4643 -44.1540 -19.5769 -14.2733 -11.7453 5.1926 45.2046 16.1652 -4.4622 -1.3409 -0.0000 0.0000 -0.0000 35.7494 5.3221 3.6881 39.5846 -2.2070 -21.4546 9.6201 -1.3614 17.0551 -11.0866 0.8931 -0.5918 0.0000 0.0000 0.0000 2.8272 9.8180 21.9302 -3.5073 -8.0291 16.5057 -1.9754 0.0572 -12.6880 0.0000 0.0000 -0.0000
-1.6049 38.0313 37.4147 -178.2580 1.1640 175.3110 0.0000 0.0000 0.0000 5.0058 3.0482 -19.2152 -1.4885 -8.9516 6.7380 -1.1613 0.1479 3.0789 0.0000 -0.0000 -0.0000 0.0000 0.0000 0.0000 -0.0698 -1.6604 8.3214 6.3701 -2.9060 0.1192 -0.0000 0.0000 -0.0000 -3.3258 1.2152 -5.4568 -0.0000 0.0000 -0.0000 -35.1007 -2.4856 2.4646 -43.9157 -17.7019 -16.3341 -10.9081 5.1866 45.8158 15.9145 -3.7517 -1.2262 -0.0000 0.0000 -0.0000 36.0464 5.3654 3.7331 39.7013 -3.6077 -23.4581 9.0329 -2.9122 14.4691 -11.1027 0.6179 -0.5685 0.0000 0.0000 0.0000 6.2980 11.4704 21.5283 -5.4481 -10.3818 23.9752 -5.5220 0.2599 -6.9942 0.0000 0.0000 -0.0000
-1.4307 37.9751 35.7056 -176.8390 1.3545 174.7910 0.0000 0.0000 0.0000 6.4329 2.8355 -18.4640 -1.7080 -9.6815 11.0797 -0.2413 0.0567 4.8889 0.0000 -0.0000 -0.0000 0.0000 0.0000 0.0000 2.5148 -1.5259 9.0731 5.4961 -2.4918 -0.7847 -0.0000 0.0000 -0.0000 -3.7067 0.4313 -4.7670 -0.0000 0.0000 -0.0000 -35.1687 -2.4267 2.4446 -43.9306 -15.7752 -18.1401 -10.1370 5.1875 46.1248 16.0945 -3.0567 -1.1492 -0.0000 0.0000 -0.0000 36.0692 5.3700 3.7372 39.9176 -4.0631 -24.4903 8.6390 -4.1149 14.0908 -10.8890 0.5425 -0.5508 0.0000 0.0000 0.0000 8.9830 11.5272 18.1794 -6.9531 -8.8583 34.3742 -7.5602 0.9605 3.5154 0.0000 0.0000 -0.0000
-1.2786 37.8660 34.1940 -175.6340 1.6848 174.4100 0.0000 0.0000 0.0000 7.6838 2.0646 -18.0905 -1.6112 -9.2371 15.9496 1.6387 -0.1921 2.7388 0.0000 -0.0000 -0.0000 0.0000 0.0000 0.0000 4.5681 -1.2637 10.4813 4.8365 -1.9762 -1.8944 -0.0000 0.0000 -0.0000 -3.5387 0.0279 -4.6735 -0.0000 0.0000 -0.0000 -34.7713 -2.3953 2.4077 -44.2489 -14.2825 -19.0329 -9.7592 5.1872 46.2941 16.0078 -2.6777 -1.0932 -0.0000 0.0000 -0.0000 35.8600 5.3431 3.7069 40.1152 -3.1450 -24.4487 8.5136 -4.7928 15.8840 -10.5049 0.7404 -0.5475 0.0000 0.0000 0.0000 10.3930 10.9015 12.5429 -5.9424 -5.1885 45.6016 -7.9295 1.7772 15.3425 0.0000 0.0000 -0.0000
